<?xml version="1.0" encoding="utf-8" standalone="no"?>
<!DOCTYPE svg PUBLIC "-//W3C//DTD SVG 1.1//EN"
  "http://www.w3.org/Graphics/SVG/1.1/DTD/svg11.dtd">
<svg xmlns:xlink="http://www.w3.org/1999/xlink" width="1440pt" height="936pt" viewBox="0 0 1440 936" xmlns="http://www.w3.org/2000/svg" version="1.1">
 <metadata>
  <rdf:RDF xmlns:dc="http://purl.org/dc/elements/1.1/" xmlns:cc="http://creativecommons.org/ns#" xmlns:rdf="http://www.w3.org/1999/02/22-rdf-syntax-ns#">
   <cc:Work>
    <dc:type rdf:resource="http://purl.org/dc/dcmitype/StillImage"/>
    <dc:date>2024-06-19T11:27:53.718359</dc:date>
    <dc:format>image/svg+xml</dc:format>
    <dc:creator>
     <cc:Agent>
      <dc:title>Matplotlib v3.8.3, https://matplotlib.org/</dc:title>
     </cc:Agent>
    </dc:creator>
   </cc:Work>
  </rdf:RDF>
 </metadata>
 <defs>
  <style type="text/css">*{stroke-linejoin: round; stroke-linecap: butt}</style>
 </defs>
 <g id="figure_1">
  <g id="patch_1">
   <path d="M 0 936 
L 1440 936 
L 1440 0 
L 0 0 
z
" style="fill: #ffffff"/>
  </g>
  <g id="axes_1">
   <g id="patch_2">
    <path d="M 610.818655 468.235871 
C 626.848182 468.235871 642.223338 462.179851 653.557925 451.401578 
C 664.892512 440.623306 671.261111 426.002779 671.261111 410.76 
C 671.261111 395.517221 664.892512 380.896694 653.557925 370.118422 
C 642.223338 359.340149 626.848182 353.284129 610.818655 353.284129 
C 594.789128 353.284129 579.413971 359.340149 568.079384 370.118422 
C 556.744797 380.896694 550.376199 395.517221 550.376199 410.76 
C 550.376199 426.002779 556.744797 440.623306 568.079384 451.401578 
C 579.413971 462.179851 594.789128 468.235871 610.818655 468.235871 
z
" clip-path="url(#p5e29d8f7d8)" style="fill: #1f77b4; opacity: 0.2; stroke: #1f77b4; stroke-linejoin: miter"/>
   </g>
   <g id="patch_3">
    <path d="M 569.697113 335.062434 
C 585.72664 335.062434 601.101797 329.006414 612.436384 318.228142 
C 623.770971 307.449869 630.139569 292.829343 630.139569 277.586563 
C 630.139569 262.343784 623.770971 247.723258 612.436384 236.944985 
C 601.101797 226.166713 585.72664 220.110692 569.697113 220.110692 
C 553.667587 220.110692 538.29243 226.166713 526.957843 236.944985 
C 515.623256 247.723258 509.254658 262.343784 509.254658 277.586563 
C 509.254658 292.829343 515.623256 307.449869 526.957843 318.228142 
C 538.29243 329.006414 553.667587 335.062434 569.697113 335.062434 
z
" clip-path="url(#p5e29d8f7d8)" style="fill: #aec7e8; opacity: 0.2; stroke: #aec7e8; stroke-linejoin: miter"/>
   </g>
   <g id="patch_4">
    <path d="M 459.388288 244.170623 
C 475.417815 244.170623 490.792971 238.114603 502.127558 227.33633 
C 513.462145 216.558058 519.830744 201.937531 519.830744 186.694752 
C 519.830744 171.451973 513.462145 156.831446 502.127558 146.053174 
C 490.792971 135.274901 475.417815 129.218881 459.388288 129.218881 
C 443.358761 129.218881 427.983604 135.274901 416.649017 146.053174 
C 405.31443 156.831446 398.945832 171.451973 398.945832 186.694752 
C 398.945832 201.937531 405.31443 216.558058 416.649017 227.33633 
C 427.983604 238.114603 443.358761 244.170623 459.388288 244.170623 
z
" clip-path="url(#p5e29d8f7d8)" style="fill: #ff7f0e; opacity: 0.2; stroke: #ff7f0e; stroke-linejoin: miter"/>
   </g>
   <g id="patch_5">
    <path d="M 314.914451 224.417945 
C 330.943978 224.417945 346.319134 218.361924 357.653721 207.583652 
C 368.988308 196.805379 375.356907 182.184853 375.356907 166.942074 
C 375.356907 151.699295 368.988308 137.078768 357.653721 126.300496 
C 346.319134 115.522223 330.943978 109.466203 314.914451 109.466203 
C 298.884924 109.466203 283.509768 115.522223 272.175181 126.300496 
C 260.840594 137.078768 254.471995 151.699295 254.471995 166.942074 
C 254.471995 182.184853 260.840594 196.805379 272.175181 207.583652 
C 283.509768 218.361924 298.884924 224.417945 314.914451 224.417945 
z
" clip-path="url(#p5e29d8f7d8)" style="fill: #ffbb78; opacity: 0.2; stroke: #ffbb78; stroke-linejoin: miter"/>
   </g>
   <g id="patch_6">
    <path d="M 182.145025 282.075735 
C 198.174552 282.075735 213.549709 276.019715 224.884296 265.241442 
C 236.218883 254.46317 242.587481 239.842643 242.587481 224.599864 
C 242.587481 209.357085 236.218883 194.736559 224.884296 183.958286 
C 213.549709 173.180014 198.174552 167.123993 182.145025 167.123993 
C 166.115499 167.123993 150.740342 173.180014 139.405755 183.958286 
C 128.071168 194.736559 121.702569 209.357085 121.702569 224.599864 
C 121.702569 239.842643 128.071168 254.46317 139.405755 265.241442 
C 150.740342 276.019715 166.115499 282.075735 182.145025 282.075735 
z
" clip-path="url(#p5e29d8f7d8)" style="fill: #2ca02c; opacity: 0.2; stroke: #2ca02c; stroke-linejoin: miter"/>
   </g>
   <g id="patch_7">
    <path d="M 103.233365 398.838053 
C 119.262892 398.838053 134.638048 392.782033 145.972635 382.003761 
C 157.307222 371.225488 163.675821 356.604962 163.675821 341.362183 
C 163.675821 326.119403 157.307222 311.498877 145.972635 300.720604 
C 134.638048 289.942332 119.262892 283.886312 103.233365 283.886312 
C 87.203838 283.886312 71.828682 289.942332 60.494095 300.720604 
C 49.159508 311.498877 42.790909 326.119403 42.790909 341.362183 
C 42.790909 356.604962 49.159508 371.225488 60.494095 382.003761 
C 71.828682 392.782033 87.203838 398.838053 103.233365 398.838053 
z
" clip-path="url(#p5e29d8f7d8)" style="fill: #98df8a; opacity: 0.2; stroke: #98df8a; stroke-linejoin: miter"/>
   </g>
   <g id="patch_8">
    <path d="M 103.233365 537.633688 
C 119.262892 537.633688 134.638048 531.577668 145.972635 520.799396 
C 157.307222 510.021123 163.675821 495.400597 163.675821 480.157817 
C 163.675821 464.915038 157.307222 450.294512 145.972635 439.516239 
C 134.638048 428.737967 119.262892 422.681947 103.233365 422.681947 
C 87.203838 422.681947 71.828682 428.737967 60.494095 439.516239 
C 49.159508 450.294512 42.790909 464.915038 42.790909 480.157817 
C 42.790909 495.400597 49.159508 510.021123 60.494095 520.799396 
C 71.828682 531.577668 87.203838 537.633688 103.233365 537.633688 
z
" clip-path="url(#p5e29d8f7d8)" style="fill: #d62728; opacity: 0.2; stroke: #d62728; stroke-linejoin: miter"/>
   </g>
   <g id="patch_9">
    <path d="M 182.145025 654.396007 
C 198.174552 654.396007 213.549709 648.339986 224.884296 637.561714 
C 236.218883 626.783441 242.587481 612.162915 242.587481 596.920136 
C 242.587481 581.677357 236.218883 567.05683 224.884296 556.278558 
C 213.549709 545.500285 198.174552 539.444265 182.145025 539.444265 
C 166.115499 539.444265 150.740342 545.500285 139.405755 556.278558 
C 128.071168 567.05683 121.702569 581.677357 121.702569 596.920136 
C 121.702569 612.162915 128.071168 626.783441 139.405755 637.561714 
C 150.740342 648.339986 166.115499 654.396007 182.145025 654.396007 
z
" clip-path="url(#p5e29d8f7d8)" style="fill: #ff9896; opacity: 0.2; stroke: #ff9896; stroke-linejoin: miter"/>
   </g>
   <g id="patch_10">
    <path d="M 314.914451 712.053797 
C 330.943978 712.053797 346.319134 705.997777 357.653721 695.219504 
C 368.988308 684.441232 375.356907 669.820705 375.356907 654.577926 
C 375.356907 639.335147 368.988308 624.714621 357.653721 613.936348 
C 346.319134 603.158076 330.943978 597.102055 314.914451 597.102055 
C 298.884924 597.102055 283.509768 603.158076 272.175181 613.936348 
C 260.840594 624.714621 254.471995 639.335147 254.471995 654.577926 
C 254.471995 669.820705 260.840594 684.441232 272.175181 695.219504 
C 283.509768 705.997777 298.884924 712.053797 314.914451 712.053797 
z
" clip-path="url(#p5e29d8f7d8)" style="fill: #9467bd; opacity: 0.2; stroke: #9467bd; stroke-linejoin: miter"/>
   </g>
   <g id="patch_11">
    <path d="M 459.388288 692.301119 
C 475.417815 692.301119 490.792971 686.245099 502.127558 675.466826 
C 513.462145 664.688554 519.830744 650.068027 519.830744 634.825248 
C 519.830744 619.582469 513.462145 604.961942 502.127558 594.18367 
C 490.792971 583.405397 475.417815 577.349377 459.388288 577.349377 
C 443.358761 577.349377 427.983604 583.405397 416.649017 594.18367 
C 405.31443 604.961942 398.945832 619.582469 398.945832 634.825248 
C 398.945832 650.068027 405.31443 664.688554 416.649017 675.466826 
C 427.983604 686.245099 443.358761 692.301119 459.388288 692.301119 
z
" clip-path="url(#p5e29d8f7d8)" style="fill: #c5b0d5; opacity: 0.2; stroke: #c5b0d5; stroke-linejoin: miter"/>
   </g>
   <g id="patch_12">
    <path d="M 569.697113 601.409308 
C 585.72664 601.409308 601.101797 595.353287 612.436384 584.575015 
C 623.770971 573.796742 630.139569 559.176216 630.139569 543.933437 
C 630.139569 528.690657 623.770971 514.070131 612.436384 503.291858 
C 601.101797 492.513586 585.72664 486.457566 569.697113 486.457566 
C 553.667587 486.457566 538.29243 492.513586 526.957843 503.291858 
C 515.623256 514.070131 509.254658 528.690657 509.254658 543.933437 
C 509.254658 559.176216 515.623256 573.796742 526.957843 584.575015 
C 538.29243 595.353287 553.667587 601.409308 569.697113 601.409308 
z
" clip-path="url(#p5e29d8f7d8)" style="fill: #8c564b; opacity: 0.2; stroke: #8c564b; stroke-linejoin: miter"/>
   </g>
   <g id="LineCollection_1">
    <path d="M 653.991838 410.76 
L 502.561471 186.694752 
" clip-path="url(#p5e29d8f7d8)" style="fill: none; stroke: #000000; stroke-width: 2.80653"/>
    <path d="M 653.991838 410.76 
L 358.087634 166.942074 
" clip-path="url(#p5e29d8f7d8)" style="fill: none; stroke: #000000; stroke-width: 2.845797"/>
    <path d="M 653.991838 410.76 
L 160.558434 189.04589 
" clip-path="url(#p5e29d8f7d8)" style="fill: none; stroke: #000000; stroke-width: 2.857233"/>
    <path d="M 653.991838 410.76 
L 293.32786 202.496048 
" clip-path="url(#p5e29d8f7d8)" style="fill: none; stroke: #000000; stroke-width: 1.855757"/>
    <path d="M 653.991838 410.76 
L 548.110522 313.140538 
" clip-path="url(#p5e29d8f7d8)" style="fill: none; stroke: #000000; stroke-width: 1.506555"/>
    <path d="M 653.991838 410.76 
L 160.558434 260.153839 
" clip-path="url(#p5e29d8f7d8)" style="fill: none; stroke: #000000; stroke-width: 2.511938"/>
    <path d="M 653.991838 410.76 
L 293.32786 619.023952 
" clip-path="url(#p5e29d8f7d8)" style="fill: none; stroke: #000000; stroke-width: 2.675597"/>
    <path d="M 612.870296 277.586563 
L 358.087634 166.942074 
" clip-path="url(#p5e29d8f7d8)" style="fill: none; stroke: #000000; stroke-width: 3.026337"/>
    <path d="M 612.870296 277.586563 
L 225.318208 224.599864 
" clip-path="url(#p5e29d8f7d8)" style="fill: none; stroke: #000000; stroke-width: 3.011839"/>
    <path d="M 612.870296 277.586563 
L 437.801697 151.140778 
" clip-path="url(#p5e29d8f7d8)" style="fill: none; stroke: #000000; stroke-width: 1.705544"/>
    <path d="M 612.870296 277.586563 
L 81.646774 305.808208 
" clip-path="url(#p5e29d8f7d8)" style="fill: none; stroke: #000000; stroke-width: 2.584019"/>
    <path d="M 612.870296 277.586563 
L 160.558434 260.153839 
" clip-path="url(#p5e29d8f7d8)" style="fill: none; stroke: #000000; stroke-width: 2.594321"/>
    <path d="M 612.870296 277.586563 
L 81.646774 444.603843 
" clip-path="url(#p5e29d8f7d8)" style="fill: none; stroke: #000000; stroke-width: 3.00762"/>
    <path d="M 612.870296 277.586563 
L 589.232064 375.206025 
" clip-path="url(#p5e29d8f7d8)" style="fill: none; stroke: #000000; stroke-width: 1.650283"/>
    <path d="M 502.561471 186.694752 
L 358.087634 166.942074 
" clip-path="url(#p5e29d8f7d8)" style="fill: none; stroke: #000000; stroke-width: 2.977883"/>
    <path d="M 502.561471 186.694752 
L 160.558434 189.04589 
" clip-path="url(#p5e29d8f7d8)" style="fill: none; stroke: #000000; stroke-width: 2.821638"/>
    <path d="M 548.110522 242.032589 
L 358.087634 166.942074 
" clip-path="url(#p5e29d8f7d8)" style="fill: none; stroke: #000000; stroke-width: 0.346754"/>
    <path d="M 548.110522 242.032589 
L 225.318208 224.599864 
" clip-path="url(#p5e29d8f7d8)" style="fill: none; stroke: #000000; stroke-width: 0.932503"/>
    <path d="M 548.110522 242.032589 
L 293.32786 690.131901 
" clip-path="url(#p5e29d8f7d8)" style="fill: none; stroke: #000000; stroke-width: 0.517344"/>
    <path d="M 358.087634 166.942074 
L 225.318208 224.599864 
" clip-path="url(#p5e29d8f7d8)" style="fill: none; stroke: #000000; stroke-width: 3.109742"/>
    <path d="M 358.087634 166.942074 
L 437.801697 151.140778 
" clip-path="url(#p5e29d8f7d8)" style="fill: none; stroke: #000000; stroke-width: 2.398084"/>
    <path d="M 358.087634 166.942074 
L 437.801697 222.248727 
" clip-path="url(#p5e29d8f7d8)" style="fill: none; stroke: #000000; stroke-width: 0.047678"/>
    <path d="M 358.087634 166.942074 
L 81.646774 305.808208 
" clip-path="url(#p5e29d8f7d8)" style="fill: none; stroke: #000000; stroke-width: 2.709662"/>
    <path d="M 358.087634 166.942074 
L 160.558434 189.04589 
" clip-path="url(#p5e29d8f7d8)" style="fill: none; stroke: #000000; stroke-width: 2.984215"/>
    <path d="M 358.087634 166.942074 
L 146.406548 480.157817 
" clip-path="url(#p5e29d8f7d8)" style="fill: none; stroke: #000000; stroke-width: 2.931748"/>
    <path d="M 358.087634 166.942074 
L 160.558434 260.153839 
" clip-path="url(#p5e29d8f7d8)" style="fill: none; stroke: #000000; stroke-width: 3.308276"/>
    <path d="M 358.087634 166.942074 
L 81.646774 444.603843 
" clip-path="url(#p5e29d8f7d8)" style="fill: none; stroke: #000000; stroke-width: 3.080927"/>
    <path d="M 358.087634 166.942074 
L 293.32786 619.023952 
" clip-path="url(#p5e29d8f7d8)" style="fill: none; stroke: #000000; stroke-width: 2.58253"/>
    <path d="M 358.087634 166.942074 
L 293.32786 690.131901 
" clip-path="url(#p5e29d8f7d8)" style="fill: none; stroke: #000000; stroke-width: 1.953197"/>
    <path d="M 225.318208 224.599864 
L 437.801697 151.140778 
" clip-path="url(#p5e29d8f7d8)" style="fill: none; stroke: #000000; stroke-width: 2.400488"/>
    <path d="M 225.318208 224.599864 
L 81.646774 305.808208 
" clip-path="url(#p5e29d8f7d8)" style="fill: none; stroke: #000000; stroke-width: 3.434282"/>
    <path d="M 225.318208 224.599864 
L 589.232064 375.206025 
" clip-path="url(#p5e29d8f7d8)" style="fill: none; stroke: #000000; stroke-width: 2.912988"/>
    <path d="M 225.318208 224.599864 
L 293.32786 690.131901 
" clip-path="url(#p5e29d8f7d8)" style="fill: none; stroke: #000000; stroke-width: 2.473579"/>
    <path d="M 146.406548 341.362183 
L 293.32786 131.388099 
" clip-path="url(#p5e29d8f7d8)" style="fill: none; stroke: #000000; stroke-width: 0.161238"/>
    <path d="M 293.32786 131.388099 
L 589.232064 446.313975 
" clip-path="url(#p5e29d8f7d8)" style="fill: none; stroke: #000000; stroke-width: 1.022373"/>
    <path d="M 293.32786 131.388099 
L 548.110522 579.487411 
" clip-path="url(#p5e29d8f7d8)" style="fill: none; stroke: #000000; stroke-width: 0.74605"/>
    <path d="M 437.801697 222.248727 
L 81.646774 305.808208 
" clip-path="url(#p5e29d8f7d8)" style="fill: none; stroke: #000000; stroke-width: 0.011656"/>
    <path d="M 81.646774 305.808208 
L 160.558434 260.153839 
" clip-path="url(#p5e29d8f7d8)" style="fill: none; stroke: #000000; stroke-width: 2.341605"/>
    <path d="M 81.646774 305.808208 
L 589.232064 375.206025 
" clip-path="url(#p5e29d8f7d8)" style="fill: none; stroke: #000000; stroke-width: 0.939237"/>
    <path d="M 81.646774 305.808208 
L 293.32786 690.131901 
" clip-path="url(#p5e29d8f7d8)" style="fill: none; stroke: #000000; stroke-width: 1.944119"/>
    <path d="M 160.558434 189.04589 
L 293.32786 202.496048 
" clip-path="url(#p5e29d8f7d8)" style="fill: none; stroke: #000000; stroke-width: 2.060621"/>
    <path d="M 160.558434 189.04589 
L 146.406548 480.157817 
" clip-path="url(#p5e29d8f7d8)" style="fill: none; stroke: #000000; stroke-width: 2.713101"/>
    <path d="M 160.558434 189.04589 
L 358.087634 654.577926 
" clip-path="url(#p5e29d8f7d8)" style="fill: none; stroke: #000000; stroke-width: 1.202819"/>
    <path d="M 160.558434 189.04589 
L 160.558434 260.153839 
" clip-path="url(#p5e29d8f7d8)" style="fill: none; stroke: #000000; stroke-width: 2.256281"/>
    <path d="M 160.558434 189.04589 
L 81.646774 376.916157 
" clip-path="url(#p5e29d8f7d8)" style="fill: none; stroke: #000000; stroke-width: 2.541519"/>
    <path d="M 160.558434 189.04589 
L 160.558434 561.366161 
" clip-path="url(#p5e29d8f7d8)" style="fill: none; stroke: #000000; stroke-width: 0.603383"/>
    <path d="M 160.558434 189.04589 
L 437.801697 599.271273 
" clip-path="url(#p5e29d8f7d8)" style="fill: none; stroke: #000000; stroke-width: 2.666922"/>
    <path d="M 160.558434 189.04589 
L 437.801697 670.379222 
" clip-path="url(#p5e29d8f7d8)" style="fill: none; stroke: #000000; stroke-width: 1.768782"/>
    <path d="M 293.32786 202.496048 
L 160.558434 260.153839 
" clip-path="url(#p5e29d8f7d8)" style="fill: none; stroke: #000000; stroke-width: 1.520168"/>
    <path d="M 548.110522 313.140538 
L 160.558434 260.153839 
" clip-path="url(#p5e29d8f7d8)" style="fill: none; stroke: #000000; stroke-width: 2.744749"/>
    <path d="M 548.110522 313.140538 
L 293.32786 619.023952 
" clip-path="url(#p5e29d8f7d8)" style="fill: none; stroke: #000000; stroke-width: 2.172215"/>
    <path d="M 548.110522 313.140538 
L 81.646774 515.711792 
" clip-path="url(#p5e29d8f7d8)" style="fill: none; stroke: #000000; stroke-width: 0.366337"/>
    <path d="M 146.406548 480.157817 
L 160.558434 260.153839 
" clip-path="url(#p5e29d8f7d8)" style="fill: none; stroke: #000000; stroke-width: 2.696099"/>
    <path d="M 146.406548 480.157817 
L 81.646774 376.916157 
" clip-path="url(#p5e29d8f7d8)" style="fill: none; stroke: #000000; stroke-width: 2.904815"/>
    <path d="M 146.406548 480.157817 
L 589.232064 446.313975 
" clip-path="url(#p5e29d8f7d8)" style="fill: none; stroke: #000000; stroke-width: 1.093829"/>
    <path d="M 225.318208 596.920136 
L 502.561471 634.825248 
" clip-path="url(#p5e29d8f7d8)" style="fill: none; stroke: #000000; stroke-width: 3.627491"/>
    <path d="M 225.318208 596.920136 
L 437.801697 599.271273 
" clip-path="url(#p5e29d8f7d8)" style="fill: none; stroke: #000000; stroke-width: 3.45647"/>
    <path d="M 225.318208 596.920136 
L 437.801697 670.379222 
" clip-path="url(#p5e29d8f7d8)" style="fill: none; stroke: #000000; stroke-width: 3.811412"/>
    <path d="M 358.087634 654.577926 
L 548.110522 508.379462 
" clip-path="url(#p5e29d8f7d8)" style="fill: none; stroke: #000000; stroke-width: 0.269896"/>
    <path d="M 160.558434 260.153839 
L 81.646774 444.603843 
" clip-path="url(#p5e29d8f7d8)" style="fill: none; stroke: #000000; stroke-width: 2.616641"/>
    <path d="M 160.558434 260.153839 
L 293.32786 619.023952 
" clip-path="url(#p5e29d8f7d8)" style="fill: none; stroke: #000000; stroke-width: 2.836646"/>
    <path d="M 160.558434 260.153839 
L 81.646774 376.916157 
" clip-path="url(#p5e29d8f7d8)" style="fill: none; stroke: #000000; stroke-width: 2.056437"/>
    <path d="M 160.558434 260.153839 
L 81.646774 515.711792 
" clip-path="url(#p5e29d8f7d8)" style="fill: none; stroke: #000000; stroke-width: 0.046032"/>
    <path d="M 160.558434 260.153839 
L 437.801697 599.271273 
" clip-path="url(#p5e29d8f7d8)" style="fill: none; stroke: #000000; stroke-width: 1.816236"/>
    <path d="M 160.558434 260.153839 
L 437.801697 670.379222 
" clip-path="url(#p5e29d8f7d8)" style="fill: none; stroke: #000000; stroke-width: 1.256414"/>
    <path d="M 81.646774 444.603843 
L 293.32786 619.023952 
" clip-path="url(#p5e29d8f7d8)" style="fill: none; stroke: #000000; stroke-width: 1.406597"/>
    <path d="M 81.646774 376.916157 
L 589.232064 446.313975 
" clip-path="url(#p5e29d8f7d8)" style="fill: none; stroke: #000000; stroke-width: 0.58054"/>
    <path d="M 81.646774 376.916157 
L 437.801697 599.271273 
" clip-path="url(#p5e29d8f7d8)" style="fill: none; stroke: #000000; stroke-width: 1.623277"/>
    <path d="M 160.558434 561.366161 
L 160.558434 632.47411 
" clip-path="url(#p5e29d8f7d8)" style="fill: none; stroke: #000000; stroke-width: 1.874635"/>
    <path d="M 160.558434 561.366161 
L 502.561471 634.825248 
" clip-path="url(#p5e29d8f7d8)" style="fill: none; stroke: #000000; stroke-width: 3.298496"/>
    <path d="M 160.558434 561.366161 
L 437.801697 599.271273 
" clip-path="url(#p5e29d8f7d8)" style="fill: none; stroke: #000000; stroke-width: 3.380753"/>
    <path d="M 160.558434 561.366161 
L 437.801697 670.379222 
" clip-path="url(#p5e29d8f7d8)" style="fill: none; stroke: #000000; stroke-width: 3.260698"/>
    <path d="M 160.558434 632.47411 
L 502.561471 634.825248 
" clip-path="url(#p5e29d8f7d8)" style="fill: none; stroke: #000000; stroke-width: 3.840763"/>
    <path d="M 160.558434 632.47411 
L 437.801697 599.271273 
" clip-path="url(#p5e29d8f7d8)" style="fill: none; stroke: #000000; stroke-width: 2.861848"/>
    <path d="M 502.561471 634.825248 
L 437.801697 599.271273 
" clip-path="url(#p5e29d8f7d8)" style="fill: none; stroke: #000000; stroke-width: 3.418957"/>
    <path d="M 502.561471 634.825248 
L 437.801697 670.379222 
" clip-path="url(#p5e29d8f7d8)" style="fill: none; stroke: #000000; stroke-width: 3.520233"/>
    <path d="M 612.870296 543.933437 
L 548.110522 579.487411 
" clip-path="url(#p5e29d8f7d8)" style="fill: none; stroke: #000000; stroke-width: 2.84369"/>
    <path d="M 437.801697 599.271273 
L 437.801697 670.379222 
" clip-path="url(#p5e29d8f7d8)" style="fill: none; stroke: #000000; stroke-width: 4"/>
    <path d="M 548.110522 508.379462 
L 548.110522 579.487411 
" clip-path="url(#p5e29d8f7d8)" style="fill: none; stroke: #000000; stroke-width: 2.041245"/>
   </g>
   <g id="PathCollection_1">
    <defs>
     <path id="C0_0_0386678d35" d="M 0 11.18034 
C 2.965061 11.18034 5.80908 10.002309 7.905694 7.905694 
C 10.002309 5.80908 11.18034 2.965061 11.18034 -0 
C 11.18034 -2.965061 10.002309 -5.80908 7.905694 -7.905694 
C 5.80908 -10.002309 2.965061 -11.18034 0 -11.18034 
C -2.965061 -11.18034 -5.80908 -10.002309 -7.905694 -7.905694 
C -10.002309 -5.80908 -11.18034 -2.965061 -11.18034 0 
C -11.18034 2.965061 -10.002309 5.80908 -7.905694 7.905694 
C -5.80908 10.002309 -2.965061 11.18034 0 11.18034 
z
"/>
    </defs>
    <g clip-path="url(#p5e29d8f7d8)">
     <use xlink:href="#C0_0_0386678d35" x="653.991838" y="410.76" style="fill: #1f77b4; stroke: #000000; stroke-width: 2"/>
    </g>
    <g clip-path="url(#p5e29d8f7d8)">
     <use xlink:href="#C0_0_0386678d35" x="612.870296" y="277.586563" style="fill: #aec7e8; stroke: #000000; stroke-width: 2"/>
    </g>
    <g clip-path="url(#p5e29d8f7d8)">
     <use xlink:href="#C0_0_0386678d35" x="502.561471" y="186.694752" style="fill: #ff7f0e; stroke: #000000; stroke-width: 2"/>
    </g>
    <g clip-path="url(#p5e29d8f7d8)">
     <use xlink:href="#C0_0_0386678d35" x="548.110522" y="242.032589" style="fill: #aec7e8; stroke: #000000; stroke-width: 2"/>
    </g>
    <g clip-path="url(#p5e29d8f7d8)">
     <use xlink:href="#C0_0_0386678d35" x="358.087634" y="166.942074" style="fill: #ffbb78; stroke: #000000; stroke-width: 2"/>
    </g>
    <g clip-path="url(#p5e29d8f7d8)">
     <use xlink:href="#C0_0_0386678d35" x="225.318208" y="224.599864" style="fill: #2ca02c; stroke: #000000; stroke-width: 2"/>
    </g>
    <g clip-path="url(#p5e29d8f7d8)">
     <use xlink:href="#C0_0_0386678d35" x="437.801697" y="151.140778" style="fill: #ff7f0e; stroke: #000000; stroke-width: 2"/>
    </g>
    <g clip-path="url(#p5e29d8f7d8)">
     <use xlink:href="#C0_0_0386678d35" x="146.406548" y="341.362183" style="fill: #98df8a; stroke: #000000; stroke-width: 2"/>
    </g>
    <g clip-path="url(#p5e29d8f7d8)">
     <use xlink:href="#C0_0_0386678d35" x="293.32786" y="131.388099" style="fill: #ffbb78; stroke: #000000; stroke-width: 2"/>
    </g>
    <g clip-path="url(#p5e29d8f7d8)">
     <use xlink:href="#C0_0_0386678d35" x="437.801697" y="222.248727" style="fill: #ff7f0e; stroke: #000000; stroke-width: 2"/>
    </g>
    <g clip-path="url(#p5e29d8f7d8)">
     <use xlink:href="#C0_0_0386678d35" x="81.646774" y="305.808208" style="fill: #98df8a; stroke: #000000; stroke-width: 2"/>
    </g>
    <g clip-path="url(#p5e29d8f7d8)">
     <use xlink:href="#C0_0_0386678d35" x="160.558434" y="189.04589" style="fill: #2ca02c; stroke: #000000; stroke-width: 2"/>
    </g>
    <g clip-path="url(#p5e29d8f7d8)">
     <use xlink:href="#C0_0_0386678d35" x="293.32786" y="202.496048" style="fill: #ffbb78; stroke: #000000; stroke-width: 2"/>
    </g>
    <g clip-path="url(#p5e29d8f7d8)">
     <use xlink:href="#C0_0_0386678d35" x="548.110522" y="313.140538" style="fill: #aec7e8; stroke: #000000; stroke-width: 2"/>
    </g>
    <g clip-path="url(#p5e29d8f7d8)">
     <use xlink:href="#C0_0_0386678d35" x="146.406548" y="480.157817" style="fill: #d62728; stroke: #000000; stroke-width: 2"/>
    </g>
    <g clip-path="url(#p5e29d8f7d8)">
     <use xlink:href="#C0_0_0386678d35" x="225.318208" y="596.920136" style="fill: #ff9896; stroke: #000000; stroke-width: 2"/>
    </g>
    <g clip-path="url(#p5e29d8f7d8)">
     <use xlink:href="#C0_0_0386678d35" x="358.087634" y="654.577926" style="fill: #9467bd; stroke: #000000; stroke-width: 2"/>
    </g>
    <g clip-path="url(#p5e29d8f7d8)">
     <use xlink:href="#C0_0_0386678d35" x="160.558434" y="260.153839" style="fill: #2ca02c; stroke: #000000; stroke-width: 2"/>
    </g>
    <g clip-path="url(#p5e29d8f7d8)">
     <use xlink:href="#C0_0_0386678d35" x="81.646774" y="444.603843" style="fill: #d62728; stroke: #000000; stroke-width: 2"/>
    </g>
    <g clip-path="url(#p5e29d8f7d8)">
     <use xlink:href="#C0_0_0386678d35" x="293.32786" y="619.023952" style="fill: #9467bd; stroke: #000000; stroke-width: 2"/>
    </g>
    <g clip-path="url(#p5e29d8f7d8)">
     <use xlink:href="#C0_0_0386678d35" x="81.646774" y="376.916157" style="fill: #98df8a; stroke: #000000; stroke-width: 2"/>
    </g>
    <g clip-path="url(#p5e29d8f7d8)">
     <use xlink:href="#C0_0_0386678d35" x="81.646774" y="515.711792" style="fill: #d62728; stroke: #000000; stroke-width: 2"/>
    </g>
    <g clip-path="url(#p5e29d8f7d8)">
     <use xlink:href="#C0_0_0386678d35" x="589.232064" y="375.206025" style="fill: #1f77b4; stroke: #000000; stroke-width: 2"/>
    </g>
    <g clip-path="url(#p5e29d8f7d8)">
     <use xlink:href="#C0_0_0386678d35" x="160.558434" y="561.366161" style="fill: #ff9896; stroke: #000000; stroke-width: 2"/>
    </g>
    <g clip-path="url(#p5e29d8f7d8)">
     <use xlink:href="#C0_0_0386678d35" x="589.232064" y="446.313975" style="fill: #1f77b4; stroke: #000000; stroke-width: 2"/>
    </g>
    <g clip-path="url(#p5e29d8f7d8)">
     <use xlink:href="#C0_0_0386678d35" x="160.558434" y="632.47411" style="fill: #ff9896; stroke: #000000; stroke-width: 2"/>
    </g>
    <g clip-path="url(#p5e29d8f7d8)">
     <use xlink:href="#C0_0_0386678d35" x="293.32786" y="690.131901" style="fill: #9467bd; stroke: #000000; stroke-width: 2"/>
    </g>
    <g clip-path="url(#p5e29d8f7d8)">
     <use xlink:href="#C0_0_0386678d35" x="502.561471" y="634.825248" style="fill: #c5b0d5; stroke: #000000; stroke-width: 2"/>
    </g>
    <g clip-path="url(#p5e29d8f7d8)">
     <use xlink:href="#C0_0_0386678d35" x="612.870296" y="543.933437" style="fill: #8c564b; stroke: #000000; stroke-width: 2"/>
    </g>
    <g clip-path="url(#p5e29d8f7d8)">
     <use xlink:href="#C0_0_0386678d35" x="437.801697" y="599.271273" style="fill: #c5b0d5; stroke: #000000; stroke-width: 2"/>
    </g>
    <g clip-path="url(#p5e29d8f7d8)">
     <use xlink:href="#C0_0_0386678d35" x="548.110522" y="508.379462" style="fill: #8c564b; stroke: #000000; stroke-width: 2"/>
    </g>
    <g clip-path="url(#p5e29d8f7d8)">
     <use xlink:href="#C0_0_0386678d35" x="437.801697" y="670.379222" style="fill: #c5b0d5; stroke: #000000; stroke-width: 2"/>
    </g>
    <g clip-path="url(#p5e29d8f7d8)">
     <use xlink:href="#C0_0_0386678d35" x="548.110522" y="579.487411" style="fill: #8c564b; stroke: #000000; stroke-width: 2"/>
    </g>
   </g>
   <g id="text_1">
    <!-- 0 -->
    <g transform="translate(358.8825 66.72) scale(0.12 -0.12)">
     <defs>
      <path id="DejaVuSans-30" d="M 2034 4250 
Q 1547 4250 1301 3770 
Q 1056 3291 1056 2328 
Q 1056 1369 1301 889 
Q 1547 409 2034 409 
Q 2525 409 2770 889 
Q 3016 1369 3016 2328 
Q 3016 3291 2770 3770 
Q 2525 4250 2034 4250 
z
M 2034 4750 
Q 2819 4750 3233 4129 
Q 3647 3509 3647 2328 
Q 3647 1150 3233 529 
Q 2819 -91 2034 -91 
Q 1250 -91 836 529 
Q 422 1150 422 2328 
Q 422 3509 836 4129 
Q 1250 4750 2034 4750 
z
" transform="scale(0.015625)"/>
     </defs>
     <use xlink:href="#DejaVuSans-30"/>
    </g>
   </g>
  </g>
  <g id="axes_2">
   <g id="patch_13">
    <path d="M 1325.418655 468.235871 
C 1341.448182 468.235871 1356.823338 462.179851 1368.157925 451.401578 
C 1379.492512 440.623306 1385.861111 426.002779 1385.861111 410.76 
C 1385.861111 395.517221 1379.492512 380.896694 1368.157925 370.118422 
C 1356.823338 359.340149 1341.448182 353.284129 1325.418655 353.284129 
C 1309.389128 353.284129 1294.013971 359.340149 1282.679384 370.118422 
C 1271.344797 380.896694 1264.976199 395.517221 1264.976199 410.76 
C 1264.976199 426.002779 1271.344797 440.623306 1282.679384 451.401578 
C 1294.013971 462.179851 1309.389128 468.235871 1325.418655 468.235871 
z
" clip-path="url(#p32b65fc714)" style="fill: #1f77b4; opacity: 0.2; stroke: #1f77b4; stroke-linejoin: miter"/>
   </g>
   <g id="patch_14">
    <path d="M 1284.297113 335.062434 
C 1300.32664 335.062434 1315.701797 329.006414 1327.036384 318.228142 
C 1338.370971 307.449869 1344.739569 292.829343 1344.739569 277.586563 
C 1344.739569 262.343784 1338.370971 247.723258 1327.036384 236.944985 
C 1315.701797 226.166713 1300.32664 220.110692 1284.297113 220.110692 
C 1268.267587 220.110692 1252.89243 226.166713 1241.557843 236.944985 
C 1230.223256 247.723258 1223.854658 262.343784 1223.854658 277.586563 
C 1223.854658 292.829343 1230.223256 307.449869 1241.557843 318.228142 
C 1252.89243 329.006414 1268.267587 335.062434 1284.297113 335.062434 
z
" clip-path="url(#p32b65fc714)" style="fill: #aec7e8; opacity: 0.2; stroke: #aec7e8; stroke-linejoin: miter"/>
   </g>
   <g id="patch_15">
    <path d="M 1173.988288 244.170623 
C 1190.017815 244.170623 1205.392971 238.114603 1216.727558 227.33633 
C 1228.062145 216.558058 1234.430744 201.937531 1234.430744 186.694752 
C 1234.430744 171.451973 1228.062145 156.831446 1216.727558 146.053174 
C 1205.392971 135.274901 1190.017815 129.218881 1173.988288 129.218881 
C 1157.958761 129.218881 1142.583604 135.274901 1131.249017 146.053174 
C 1119.91443 156.831446 1113.545832 171.451973 1113.545832 186.694752 
C 1113.545832 201.937531 1119.91443 216.558058 1131.249017 227.33633 
C 1142.583604 238.114603 1157.958761 244.170623 1173.988288 244.170623 
z
" clip-path="url(#p32b65fc714)" style="fill: #ff7f0e; opacity: 0.2; stroke: #ff7f0e; stroke-linejoin: miter"/>
   </g>
   <g id="patch_16">
    <path d="M 1029.514451 224.417945 
C 1045.543978 224.417945 1060.919134 218.361924 1072.253721 207.583652 
C 1083.588308 196.805379 1089.956907 182.184853 1089.956907 166.942074 
C 1089.956907 151.699295 1083.588308 137.078768 1072.253721 126.300496 
C 1060.919134 115.522223 1045.543978 109.466203 1029.514451 109.466203 
C 1013.484924 109.466203 998.109768 115.522223 986.775181 126.300496 
C 975.440594 137.078768 969.071995 151.699295 969.071995 166.942074 
C 969.071995 182.184853 975.440594 196.805379 986.775181 207.583652 
C 998.109768 218.361924 1013.484924 224.417945 1029.514451 224.417945 
z
" clip-path="url(#p32b65fc714)" style="fill: #ffbb78; opacity: 0.2; stroke: #ffbb78; stroke-linejoin: miter"/>
   </g>
   <g id="patch_17">
    <path d="M 896.745025 282.075735 
C 912.774552 282.075735 928.149709 276.019715 939.484296 265.241442 
C 950.818883 254.46317 957.187481 239.842643 957.187481 224.599864 
C 957.187481 209.357085 950.818883 194.736559 939.484296 183.958286 
C 928.149709 173.180014 912.774552 167.123993 896.745025 167.123993 
C 880.715499 167.123993 865.340342 173.180014 854.005755 183.958286 
C 842.671168 194.736559 836.302569 209.357085 836.302569 224.599864 
C 836.302569 239.842643 842.671168 254.46317 854.005755 265.241442 
C 865.340342 276.019715 880.715499 282.075735 896.745025 282.075735 
z
" clip-path="url(#p32b65fc714)" style="fill: #2ca02c; opacity: 0.2; stroke: #2ca02c; stroke-linejoin: miter"/>
   </g>
   <g id="patch_18">
    <path d="M 817.833365 398.838053 
C 833.862892 398.838053 849.238048 392.782033 860.572635 382.003761 
C 871.907222 371.225488 878.275821 356.604962 878.275821 341.362183 
C 878.275821 326.119403 871.907222 311.498877 860.572635 300.720604 
C 849.238048 289.942332 833.862892 283.886312 817.833365 283.886312 
C 801.803838 283.886312 786.428682 289.942332 775.094095 300.720604 
C 763.759508 311.498877 757.390909 326.119403 757.390909 341.362183 
C 757.390909 356.604962 763.759508 371.225488 775.094095 382.003761 
C 786.428682 392.782033 801.803838 398.838053 817.833365 398.838053 
z
" clip-path="url(#p32b65fc714)" style="fill: #98df8a; opacity: 0.2; stroke: #98df8a; stroke-linejoin: miter"/>
   </g>
   <g id="patch_19">
    <path d="M 817.833365 537.633688 
C 833.862892 537.633688 849.238048 531.577668 860.572635 520.799396 
C 871.907222 510.021123 878.275821 495.400597 878.275821 480.157817 
C 878.275821 464.915038 871.907222 450.294512 860.572635 439.516239 
C 849.238048 428.737967 833.862892 422.681947 817.833365 422.681947 
C 801.803838 422.681947 786.428682 428.737967 775.094095 439.516239 
C 763.759508 450.294512 757.390909 464.915038 757.390909 480.157817 
C 757.390909 495.400597 763.759508 510.021123 775.094095 520.799396 
C 786.428682 531.577668 801.803838 537.633688 817.833365 537.633688 
z
" clip-path="url(#p32b65fc714)" style="fill: #d62728; opacity: 0.2; stroke: #d62728; stroke-linejoin: miter"/>
   </g>
   <g id="patch_20">
    <path d="M 896.745025 654.396007 
C 912.774552 654.396007 928.149709 648.339986 939.484296 637.561714 
C 950.818883 626.783441 957.187481 612.162915 957.187481 596.920136 
C 957.187481 581.677357 950.818883 567.05683 939.484296 556.278558 
C 928.149709 545.500285 912.774552 539.444265 896.745025 539.444265 
C 880.715499 539.444265 865.340342 545.500285 854.005755 556.278558 
C 842.671168 567.05683 836.302569 581.677357 836.302569 596.920136 
C 836.302569 612.162915 842.671168 626.783441 854.005755 637.561714 
C 865.340342 648.339986 880.715499 654.396007 896.745025 654.396007 
z
" clip-path="url(#p32b65fc714)" style="fill: #ff9896; opacity: 0.2; stroke: #ff9896; stroke-linejoin: miter"/>
   </g>
   <g id="patch_21">
    <path d="M 1029.514451 712.053797 
C 1045.543978 712.053797 1060.919134 705.997777 1072.253721 695.219504 
C 1083.588308 684.441232 1089.956907 669.820705 1089.956907 654.577926 
C 1089.956907 639.335147 1083.588308 624.714621 1072.253721 613.936348 
C 1060.919134 603.158076 1045.543978 597.102055 1029.514451 597.102055 
C 1013.484924 597.102055 998.109768 603.158076 986.775181 613.936348 
C 975.440594 624.714621 969.071995 639.335147 969.071995 654.577926 
C 969.071995 669.820705 975.440594 684.441232 986.775181 695.219504 
C 998.109768 705.997777 1013.484924 712.053797 1029.514451 712.053797 
z
" clip-path="url(#p32b65fc714)" style="fill: #9467bd; opacity: 0.2; stroke: #9467bd; stroke-linejoin: miter"/>
   </g>
   <g id="patch_22">
    <path d="M 1173.988288 692.301119 
C 1190.017815 692.301119 1205.392971 686.245099 1216.727558 675.466826 
C 1228.062145 664.688554 1234.430744 650.068027 1234.430744 634.825248 
C 1234.430744 619.582469 1228.062145 604.961942 1216.727558 594.18367 
C 1205.392971 583.405397 1190.017815 577.349377 1173.988288 577.349377 
C 1157.958761 577.349377 1142.583604 583.405397 1131.249017 594.18367 
C 1119.91443 604.961942 1113.545832 619.582469 1113.545832 634.825248 
C 1113.545832 650.068027 1119.91443 664.688554 1131.249017 675.466826 
C 1142.583604 686.245099 1157.958761 692.301119 1173.988288 692.301119 
z
" clip-path="url(#p32b65fc714)" style="fill: #c5b0d5; opacity: 0.2; stroke: #c5b0d5; stroke-linejoin: miter"/>
   </g>
   <g id="patch_23">
    <path d="M 1284.297113 601.409308 
C 1300.32664 601.409308 1315.701797 595.353287 1327.036384 584.575015 
C 1338.370971 573.796742 1344.739569 559.176216 1344.739569 543.933437 
C 1344.739569 528.690657 1338.370971 514.070131 1327.036384 503.291858 
C 1315.701797 492.513586 1300.32664 486.457566 1284.297113 486.457566 
C 1268.267587 486.457566 1252.89243 492.513586 1241.557843 503.291858 
C 1230.223256 514.070131 1223.854658 528.690657 1223.854658 543.933437 
C 1223.854658 559.176216 1230.223256 573.796742 1241.557843 584.575015 
C 1252.89243 595.353287 1268.267587 601.409308 1284.297113 601.409308 
z
" clip-path="url(#p32b65fc714)" style="fill: #8c564b; opacity: 0.2; stroke: #8c564b; stroke-linejoin: miter"/>
   </g>
   <g id="LineCollection_2">
    <path d="M 1368.591838 410.76 
L 1072.687634 166.942074 
" clip-path="url(#p32b65fc714)" style="fill: none; stroke: #000000; stroke-width: 2.88104"/>
    <path d="M 1368.591838 410.76 
L 939.918208 224.599864 
" clip-path="url(#p32b65fc714)" style="fill: none; stroke: #000000; stroke-width: 1.393631"/>
    <path d="M 1368.591838 410.76 
L 875.158434 189.04589 
" clip-path="url(#p32b65fc714)" style="fill: none; stroke: #000000; stroke-width: 2.388222"/>
    <path d="M 1368.591838 410.76 
L 1262.710522 313.140538 
" clip-path="url(#p32b65fc714)" style="fill: none; stroke: #000000; stroke-width: 1.236841"/>
    <path d="M 1368.591838 410.76 
L 861.006548 480.157817 
" clip-path="url(#p32b65fc714)" style="fill: none; stroke: #000000; stroke-width: 1.081461"/>
    <path d="M 1327.470296 277.586563 
L 939.918208 224.599864 
" clip-path="url(#p32b65fc714)" style="fill: none; stroke: #000000; stroke-width: 2.727729"/>
    <path d="M 1327.470296 277.586563 
L 1152.401697 151.140778 
" clip-path="url(#p32b65fc714)" style="fill: none; stroke: #000000; stroke-width: 2.845181"/>
    <path d="M 1327.470296 277.586563 
L 796.246774 305.808208 
" clip-path="url(#p32b65fc714)" style="fill: none; stroke: #000000; stroke-width: 0.588493"/>
    <path d="M 1327.470296 277.586563 
L 1007.92786 202.496048 
" clip-path="url(#p32b65fc714)" style="fill: none; stroke: #000000; stroke-width: 1.671403"/>
    <path d="M 1327.470296 277.586563 
L 875.158434 260.153839 
" clip-path="url(#p32b65fc714)" style="fill: none; stroke: #000000; stroke-width: 1.973934"/>
    <path d="M 1327.470296 277.586563 
L 796.246774 444.603843 
" clip-path="url(#p32b65fc714)" style="fill: none; stroke: #000000; stroke-width: 1.99092"/>
    <path d="M 1327.470296 277.586563 
L 1303.832064 375.206025 
" clip-path="url(#p32b65fc714)" style="fill: none; stroke: #000000; stroke-width: 2.537866"/>
    <path d="M 1217.161471 186.694752 
L 1072.687634 166.942074 
" clip-path="url(#p32b65fc714)" style="fill: none; stroke: #000000; stroke-width: 0.914657"/>
    <path d="M 1217.161471 186.694752 
L 861.006548 480.157817 
" clip-path="url(#p32b65fc714)" style="fill: none; stroke: #000000; stroke-width: 1.011563"/>
    <path d="M 1217.161471 186.694752 
L 1072.687634 654.577926 
" clip-path="url(#p32b65fc714)" style="fill: none; stroke: #000000; stroke-width: 0.57481"/>
    <path d="M 1217.161471 186.694752 
L 1007.92786 619.023952 
" clip-path="url(#p32b65fc714)" style="fill: none; stroke: #000000; stroke-width: 1.239279"/>
    <path d="M 1262.710522 242.032589 
L 939.918208 224.599864 
" clip-path="url(#p32b65fc714)" style="fill: none; stroke: #000000; stroke-width: 1.093575"/>
    <path d="M 1262.710522 242.032589 
L 1152.401697 151.140778 
" clip-path="url(#p32b65fc714)" style="fill: none; stroke: #000000; stroke-width: 1.19298"/>
    <path d="M 1262.710522 242.032589 
L 1327.470296 543.933437 
" clip-path="url(#p32b65fc714)" style="fill: none; stroke: #000000; stroke-width: 0.175104"/>
    <path d="M 1072.687634 166.942074 
L 939.918208 224.599864 
" clip-path="url(#p32b65fc714)" style="fill: none; stroke: #000000; stroke-width: 3.37366"/>
    <path d="M 1072.687634 166.942074 
L 1152.401697 151.140778 
" clip-path="url(#p32b65fc714)" style="fill: none; stroke: #000000; stroke-width: 1.539901"/>
    <path d="M 1072.687634 166.942074 
L 875.158434 189.04589 
" clip-path="url(#p32b65fc714)" style="fill: none; stroke: #000000; stroke-width: 1.554834"/>
    <path d="M 1072.687634 166.942074 
L 1262.710522 313.140538 
" clip-path="url(#p32b65fc714)" style="fill: none; stroke: #000000; stroke-width: 1.429315"/>
    <path d="M 1072.687634 166.942074 
L 861.006548 480.157817 
" clip-path="url(#p32b65fc714)" style="fill: none; stroke: #000000; stroke-width: 1.347391"/>
    <path d="M 1072.687634 166.942074 
L 796.246774 444.603843 
" clip-path="url(#p32b65fc714)" style="fill: none; stroke: #000000; stroke-width: 1.378498"/>
    <path d="M 1072.687634 166.942074 
L 1007.92786 619.023952 
" clip-path="url(#p32b65fc714)" style="fill: none; stroke: #000000; stroke-width: 2.145938"/>
    <path d="M 1072.687634 166.942074 
L 796.246774 376.916157 
" clip-path="url(#p32b65fc714)" style="fill: none; stroke: #000000; stroke-width: 0.196295"/>
    <path d="M 1072.687634 166.942074 
L 875.158434 632.47411 
" clip-path="url(#p32b65fc714)" style="fill: none; stroke: #000000; stroke-width: 0.778999"/>
    <path d="M 1072.687634 166.942074 
L 1007.92786 690.131901 
" clip-path="url(#p32b65fc714)" style="fill: none; stroke: #000000; stroke-width: 1.152347"/>
    <path d="M 1072.687634 166.942074 
L 1327.470296 543.933437 
" clip-path="url(#p32b65fc714)" style="fill: none; stroke: #000000; stroke-width: 0.016957"/>
    <path d="M 939.918208 224.599864 
L 1152.401697 151.140778 
" clip-path="url(#p32b65fc714)" style="fill: none; stroke: #000000; stroke-width: 1.970111"/>
    <path d="M 939.918208 224.599864 
L 1007.92786 202.496048 
" clip-path="url(#p32b65fc714)" style="fill: none; stroke: #000000; stroke-width: 2.693183"/>
    <path d="M 939.918208 224.599864 
L 861.006548 480.157817 
" clip-path="url(#p32b65fc714)" style="fill: none; stroke: #000000; stroke-width: 1.757072"/>
    <path d="M 939.918208 224.599864 
L 796.246774 444.603843 
" clip-path="url(#p32b65fc714)" style="fill: none; stroke: #000000; stroke-width: 1.96998"/>
    <path d="M 939.918208 224.599864 
L 1007.92786 619.023952 
" clip-path="url(#p32b65fc714)" style="fill: none; stroke: #000000; stroke-width: 1.802818"/>
    <path d="M 939.918208 224.599864 
L 1303.832064 375.206025 
" clip-path="url(#p32b65fc714)" style="fill: none; stroke: #000000; stroke-width: 1.479798"/>
    <path d="M 939.918208 224.599864 
L 1303.832064 446.313975 
" clip-path="url(#p32b65fc714)" style="fill: none; stroke: #000000; stroke-width: 0.547805"/>
    <path d="M 939.918208 224.599864 
L 875.158434 632.47411 
" clip-path="url(#p32b65fc714)" style="fill: none; stroke: #000000; stroke-width: 1.304001"/>
    <path d="M 939.918208 224.599864 
L 1327.470296 543.933437 
" clip-path="url(#p32b65fc714)" style="fill: none; stroke: #000000; stroke-width: 0.835709"/>
    <path d="M 939.918208 224.599864 
L 1152.401697 599.271273 
" clip-path="url(#p32b65fc714)" style="fill: none; stroke: #000000; stroke-width: 0.543118"/>
    <path d="M 1152.401697 151.140778 
L 796.246774 444.603843 
" clip-path="url(#p32b65fc714)" style="fill: none; stroke: #000000; stroke-width: 2.070221"/>
    <path d="M 1152.401697 151.140778 
L 1007.92786 690.131901 
" clip-path="url(#p32b65fc714)" style="fill: none; stroke: #000000; stroke-width: 0.692903"/>
    <path d="M 1152.401697 151.140778 
L 1327.470296 543.933437 
" clip-path="url(#p32b65fc714)" style="fill: none; stroke: #000000; stroke-width: 0.279887"/>
    <path d="M 861.006548 341.362183 
L 1007.92786 202.496048 
" clip-path="url(#p32b65fc714)" style="fill: none; stroke: #000000; stroke-width: 0.194753"/>
    <path d="M 1007.92786 131.388099 
L 1152.401697 222.248727 
" clip-path="url(#p32b65fc714)" style="fill: none; stroke: #000000; stroke-width: 0.600134"/>
    <path d="M 1007.92786 131.388099 
L 796.246774 515.711792 
" clip-path="url(#p32b65fc714)" style="fill: none; stroke: #000000; stroke-width: 0.087476"/>
    <path d="M 1007.92786 131.388099 
L 875.158434 632.47411 
" clip-path="url(#p32b65fc714)" style="fill: none; stroke: #000000; stroke-width: 0.054884"/>
    <path d="M 1007.92786 131.388099 
L 1262.710522 508.379462 
" clip-path="url(#p32b65fc714)" style="fill: none; stroke: #000000; stroke-width: 0.59289"/>
    <path d="M 1007.92786 131.388099 
L 1262.710522 579.487411 
" clip-path="url(#p32b65fc714)" style="fill: none; stroke: #000000; stroke-width: 1.045114"/>
    <path d="M 1152.401697 222.248727 
L 796.246774 515.711792 
" clip-path="url(#p32b65fc714)" style="fill: none; stroke: #000000; stroke-width: 0.201992"/>
    <path d="M 796.246774 305.808208 
L 875.158434 260.153839 
" clip-path="url(#p32b65fc714)" style="fill: none; stroke: #000000; stroke-width: 0.386794"/>
    <path d="M 796.246774 305.808208 
L 796.246774 444.603843 
" clip-path="url(#p32b65fc714)" style="fill: none; stroke: #000000; stroke-width: 0.588324"/>
    <path d="M 875.158434 189.04589 
L 1262.710522 313.140538 
" clip-path="url(#p32b65fc714)" style="fill: none; stroke: #000000; stroke-width: 0.194575"/>
    <path d="M 875.158434 189.04589 
L 861.006548 480.157817 
" clip-path="url(#p32b65fc714)" style="fill: none; stroke: #000000; stroke-width: 1.393861"/>
    <path d="M 875.158434 189.04589 
L 796.246774 376.916157 
" clip-path="url(#p32b65fc714)" style="fill: none; stroke: #000000; stroke-width: 0.308873"/>
    <path d="M 1007.92786 202.496048 
L 875.158434 260.153839 
" clip-path="url(#p32b65fc714)" style="fill: none; stroke: #000000; stroke-width: 0.872223"/>
    <path d="M 1007.92786 202.496048 
L 796.246774 444.603843 
" clip-path="url(#p32b65fc714)" style="fill: none; stroke: #000000; stroke-width: 0.828457"/>
    <path d="M 1007.92786 202.496048 
L 1303.832064 375.206025 
" clip-path="url(#p32b65fc714)" style="fill: none; stroke: #000000; stroke-width: 1.043623"/>
    <path d="M 861.006548 480.157817 
L 1007.92786 619.023952 
" clip-path="url(#p32b65fc714)" style="fill: none; stroke: #000000; stroke-width: 2.200765"/>
    <path d="M 861.006548 480.157817 
L 796.246774 376.916157 
" clip-path="url(#p32b65fc714)" style="fill: none; stroke: #000000; stroke-width: 0.011506"/>
    <path d="M 939.918208 596.920136 
L 875.158434 561.366161 
" clip-path="url(#p32b65fc714)" style="fill: none; stroke: #000000; stroke-width: 1.280999"/>
    <path d="M 939.918208 596.920136 
L 1217.161471 634.825248 
" clip-path="url(#p32b65fc714)" style="fill: none; stroke: #000000; stroke-width: 0.416214"/>
    <path d="M 939.918208 596.920136 
L 1327.470296 543.933437 
" clip-path="url(#p32b65fc714)" style="fill: none; stroke: #000000; stroke-width: 2.082472"/>
    <path d="M 939.918208 596.920136 
L 1152.401697 599.271273 
" clip-path="url(#p32b65fc714)" style="fill: none; stroke: #000000; stroke-width: 3.799203"/>
    <path d="M 939.918208 596.920136 
L 1152.401697 670.379222 
" clip-path="url(#p32b65fc714)" style="fill: none; stroke: #000000; stroke-width: 0.689216"/>
    <path d="M 875.158434 260.153839 
L 796.246774 444.603843 
" clip-path="url(#p32b65fc714)" style="fill: none; stroke: #000000; stroke-width: 0.777278"/>
    <path d="M 796.246774 444.603843 
L 1007.92786 619.023952 
" clip-path="url(#p32b65fc714)" style="fill: none; stroke: #000000; stroke-width: 1.454492"/>
    <path d="M 796.246774 444.603843 
L 1303.832064 446.313975 
" clip-path="url(#p32b65fc714)" style="fill: none; stroke: #000000; stroke-width: 0.995266"/>
    <path d="M 796.246774 444.603843 
L 1007.92786 690.131901 
" clip-path="url(#p32b65fc714)" style="fill: none; stroke: #000000; stroke-width: 2.058862"/>
    <path d="M 1007.92786 619.023952 
L 1303.832064 446.313975 
" clip-path="url(#p32b65fc714)" style="fill: none; stroke: #000000; stroke-width: 0.259191"/>
    <path d="M 796.246774 515.711792 
L 875.158434 561.366161 
" clip-path="url(#p32b65fc714)" style="fill: none; stroke: #000000; stroke-width: 0.068172"/>
    <path d="M 796.246774 515.711792 
L 875.158434 632.47411 
" clip-path="url(#p32b65fc714)" style="fill: none; stroke: #000000; stroke-width: 0.003906"/>
    <path d="M 796.246774 515.711792 
L 1262.710522 579.487411 
" clip-path="url(#p32b65fc714)" style="fill: none; stroke: #000000; stroke-width: 1.011883"/>
    <path d="M 875.158434 561.366161 
L 875.158434 632.47411 
" clip-path="url(#p32b65fc714)" style="fill: none; stroke: #000000; stroke-width: 0.908384"/>
    <path d="M 875.158434 561.366161 
L 1217.161471 634.825248 
" clip-path="url(#p32b65fc714)" style="fill: none; stroke: #000000; stroke-width: 0.411631"/>
    <path d="M 875.158434 561.366161 
L 1327.470296 543.933437 
" clip-path="url(#p32b65fc714)" style="fill: none; stroke: #000000; stroke-width: 1.753515"/>
    <path d="M 875.158434 561.366161 
L 1152.401697 599.271273 
" clip-path="url(#p32b65fc714)" style="fill: none; stroke: #000000; stroke-width: 2.450511"/>
    <path d="M 875.158434 561.366161 
L 1152.401697 670.379222 
" clip-path="url(#p32b65fc714)" style="fill: none; stroke: #000000; stroke-width: 0.421634"/>
    <path d="M 875.158434 561.366161 
L 1262.710522 579.487411 
" clip-path="url(#p32b65fc714)" style="fill: none; stroke: #000000; stroke-width: 1.208858"/>
    <path d="M 875.158434 632.47411 
L 1327.470296 543.933437 
" clip-path="url(#p32b65fc714)" style="fill: none; stroke: #000000; stroke-width: 1.20618"/>
    <path d="M 875.158434 632.47411 
L 1152.401697 599.271273 
" clip-path="url(#p32b65fc714)" style="fill: none; stroke: #000000; stroke-width: 1.488869"/>
    <path d="M 875.158434 632.47411 
L 1262.710522 508.379462 
" clip-path="url(#p32b65fc714)" style="fill: none; stroke: #000000; stroke-width: 0.62978"/>
    <path d="M 875.158434 632.47411 
L 1262.710522 579.487411 
" clip-path="url(#p32b65fc714)" style="fill: none; stroke: #000000; stroke-width: 1.86903"/>
    <path d="M 1217.161471 634.825248 
L 1152.401697 670.379222 
" clip-path="url(#p32b65fc714)" style="fill: none; stroke: #000000; stroke-width: 1.825561"/>
    <path d="M 1327.470296 543.933437 
L 1152.401697 599.271273 
" clip-path="url(#p32b65fc714)" style="fill: none; stroke: #000000; stroke-width: 0.071223"/>
    <path d="M 1327.470296 543.933437 
L 1262.710522 579.487411 
" clip-path="url(#p32b65fc714)" style="fill: none; stroke: #000000; stroke-width: 3.475181"/>
    <path d="M 1152.401697 599.271273 
L 1152.401697 670.379222 
" clip-path="url(#p32b65fc714)" style="fill: none; stroke: #000000; stroke-width: 0.090063"/>
    <path d="M 1262.710522 508.379462 
L 1262.710522 579.487411 
" clip-path="url(#p32b65fc714)" style="fill: none; stroke: #000000; stroke-width: 4"/>
   </g>
   <g id="PathCollection_2">
    <defs>
     <path id="C1_0_891cca7e20" d="M 0 11.18034 
C 2.965061 11.18034 5.80908 10.002309 7.905694 7.905694 
C 10.002309 5.80908 11.18034 2.965061 11.18034 -0 
C 11.18034 -2.965061 10.002309 -5.80908 7.905694 -7.905694 
C 5.80908 -10.002309 2.965061 -11.18034 0 -11.18034 
C -2.965061 -11.18034 -5.80908 -10.002309 -7.905694 -7.905694 
C -10.002309 -5.80908 -11.18034 -2.965061 -11.18034 0 
C -11.18034 2.965061 -10.002309 5.80908 -7.905694 7.905694 
C -5.80908 10.002309 -2.965061 11.18034 0 11.18034 
z
"/>
    </defs>
    <g clip-path="url(#p32b65fc714)">
     <use xlink:href="#C1_0_891cca7e20" x="1368.591838" y="410.76" style="fill: #1f77b4; stroke: #000000; stroke-width: 2"/>
    </g>
    <g clip-path="url(#p32b65fc714)">
     <use xlink:href="#C1_0_891cca7e20" x="1327.470296" y="277.586563" style="fill: #aec7e8; stroke: #000000; stroke-width: 2"/>
    </g>
    <g clip-path="url(#p32b65fc714)">
     <use xlink:href="#C1_0_891cca7e20" x="1217.161471" y="186.694752" style="fill: #ff7f0e; stroke: #000000; stroke-width: 2"/>
    </g>
    <g clip-path="url(#p32b65fc714)">
     <use xlink:href="#C1_0_891cca7e20" x="1262.710522" y="242.032589" style="fill: #aec7e8; stroke: #000000; stroke-width: 2"/>
    </g>
    <g clip-path="url(#p32b65fc714)">
     <use xlink:href="#C1_0_891cca7e20" x="1072.687634" y="166.942074" style="fill: #ffbb78; stroke: #000000; stroke-width: 2"/>
    </g>
    <g clip-path="url(#p32b65fc714)">
     <use xlink:href="#C1_0_891cca7e20" x="939.918208" y="224.599864" style="fill: #2ca02c; stroke: #000000; stroke-width: 2"/>
    </g>
    <g clip-path="url(#p32b65fc714)">
     <use xlink:href="#C1_0_891cca7e20" x="1152.401697" y="151.140778" style="fill: #ff7f0e; stroke: #000000; stroke-width: 2"/>
    </g>
    <g clip-path="url(#p32b65fc714)">
     <use xlink:href="#C1_0_891cca7e20" x="861.006548" y="341.362183" style="fill: #98df8a; stroke: #000000; stroke-width: 2"/>
    </g>
    <g clip-path="url(#p32b65fc714)">
     <use xlink:href="#C1_0_891cca7e20" x="1007.92786" y="131.388099" style="fill: #ffbb78; stroke: #000000; stroke-width: 2"/>
    </g>
    <g clip-path="url(#p32b65fc714)">
     <use xlink:href="#C1_0_891cca7e20" x="1152.401697" y="222.248727" style="fill: #ff7f0e; stroke: #000000; stroke-width: 2"/>
    </g>
    <g clip-path="url(#p32b65fc714)">
     <use xlink:href="#C1_0_891cca7e20" x="796.246774" y="305.808208" style="fill: #98df8a; stroke: #000000; stroke-width: 2"/>
    </g>
    <g clip-path="url(#p32b65fc714)">
     <use xlink:href="#C1_0_891cca7e20" x="875.158434" y="189.04589" style="fill: #2ca02c; stroke: #000000; stroke-width: 2"/>
    </g>
    <g clip-path="url(#p32b65fc714)">
     <use xlink:href="#C1_0_891cca7e20" x="1007.92786" y="202.496048" style="fill: #ffbb78; stroke: #000000; stroke-width: 2"/>
    </g>
    <g clip-path="url(#p32b65fc714)">
     <use xlink:href="#C1_0_891cca7e20" x="1262.710522" y="313.140538" style="fill: #aec7e8; stroke: #000000; stroke-width: 2"/>
    </g>
    <g clip-path="url(#p32b65fc714)">
     <use xlink:href="#C1_0_891cca7e20" x="861.006548" y="480.157817" style="fill: #d62728; stroke: #000000; stroke-width: 2"/>
    </g>
    <g clip-path="url(#p32b65fc714)">
     <use xlink:href="#C1_0_891cca7e20" x="939.918208" y="596.920136" style="fill: #ff9896; stroke: #000000; stroke-width: 2"/>
    </g>
    <g clip-path="url(#p32b65fc714)">
     <use xlink:href="#C1_0_891cca7e20" x="1072.687634" y="654.577926" style="fill: #9467bd; stroke: #000000; stroke-width: 2"/>
    </g>
    <g clip-path="url(#p32b65fc714)">
     <use xlink:href="#C1_0_891cca7e20" x="875.158434" y="260.153839" style="fill: #2ca02c; stroke: #000000; stroke-width: 2"/>
    </g>
    <g clip-path="url(#p32b65fc714)">
     <use xlink:href="#C1_0_891cca7e20" x="796.246774" y="444.603843" style="fill: #d62728; stroke: #000000; stroke-width: 2"/>
    </g>
    <g clip-path="url(#p32b65fc714)">
     <use xlink:href="#C1_0_891cca7e20" x="1007.92786" y="619.023952" style="fill: #9467bd; stroke: #000000; stroke-width: 2"/>
    </g>
    <g clip-path="url(#p32b65fc714)">
     <use xlink:href="#C1_0_891cca7e20" x="796.246774" y="376.916157" style="fill: #98df8a; stroke: #000000; stroke-width: 2"/>
    </g>
    <g clip-path="url(#p32b65fc714)">
     <use xlink:href="#C1_0_891cca7e20" x="796.246774" y="515.711792" style="fill: #d62728; stroke: #000000; stroke-width: 2"/>
    </g>
    <g clip-path="url(#p32b65fc714)">
     <use xlink:href="#C1_0_891cca7e20" x="1303.832064" y="375.206025" style="fill: #1f77b4; stroke: #000000; stroke-width: 2"/>
    </g>
    <g clip-path="url(#p32b65fc714)">
     <use xlink:href="#C1_0_891cca7e20" x="875.158434" y="561.366161" style="fill: #ff9896; stroke: #000000; stroke-width: 2"/>
    </g>
    <g clip-path="url(#p32b65fc714)">
     <use xlink:href="#C1_0_891cca7e20" x="1303.832064" y="446.313975" style="fill: #1f77b4; stroke: #000000; stroke-width: 2"/>
    </g>
    <g clip-path="url(#p32b65fc714)">
     <use xlink:href="#C1_0_891cca7e20" x="875.158434" y="632.47411" style="fill: #ff9896; stroke: #000000; stroke-width: 2"/>
    </g>
    <g clip-path="url(#p32b65fc714)">
     <use xlink:href="#C1_0_891cca7e20" x="1007.92786" y="690.131901" style="fill: #9467bd; stroke: #000000; stroke-width: 2"/>
    </g>
    <g clip-path="url(#p32b65fc714)">
     <use xlink:href="#C1_0_891cca7e20" x="1217.161471" y="634.825248" style="fill: #c5b0d5; stroke: #000000; stroke-width: 2"/>
    </g>
    <g clip-path="url(#p32b65fc714)">
     <use xlink:href="#C1_0_891cca7e20" x="1327.470296" y="543.933437" style="fill: #8c564b; stroke: #000000; stroke-width: 2"/>
    </g>
    <g clip-path="url(#p32b65fc714)">
     <use xlink:href="#C1_0_891cca7e20" x="1152.401697" y="599.271273" style="fill: #c5b0d5; stroke: #000000; stroke-width: 2"/>
    </g>
    <g clip-path="url(#p32b65fc714)">
     <use xlink:href="#C1_0_891cca7e20" x="1262.710522" y="508.379462" style="fill: #8c564b; stroke: #000000; stroke-width: 2"/>
    </g>
    <g clip-path="url(#p32b65fc714)">
     <use xlink:href="#C1_0_891cca7e20" x="1152.401697" y="670.379222" style="fill: #c5b0d5; stroke: #000000; stroke-width: 2"/>
    </g>
    <g clip-path="url(#p32b65fc714)">
     <use xlink:href="#C1_0_891cca7e20" x="1262.710522" y="579.487411" style="fill: #8c564b; stroke: #000000; stroke-width: 2"/>
    </g>
   </g>
   <g id="text_2">
    <!-- 1 -->
    <g transform="translate(1073.4825 66.72) scale(0.12 -0.12)">
     <defs>
      <path id="DejaVuSans-31" d="M 794 531 
L 1825 531 
L 1825 4091 
L 703 3866 
L 703 4441 
L 1819 4666 
L 2450 4666 
L 2450 531 
L 3481 531 
L 3481 0 
L 794 0 
L 794 531 
z
" transform="scale(0.015625)"/>
     </defs>
     <use xlink:href="#DejaVuSans-31"/>
    </g>
   </g>
  </g>
  <g id="legend_1">
   <g id="patch_24">
    <path d="M -56.779688 884.484375 
L -16.779688 884.484375 
L -16.779688 870.484375 
L -56.779688 870.484375 
z
" style="fill: #1f77b4; stroke: #1f77b4; stroke-linejoin: miter"/>
   </g>
   <g id="text_3">
    <!-- url-shorten -->
    <g transform="translate(-0.779688 884.484375) scale(0.2 -0.2)">
     <defs>
      <path id="DejaVuSans-75" d="M 544 1381 
L 544 3500 
L 1119 3500 
L 1119 1403 
Q 1119 906 1312 657 
Q 1506 409 1894 409 
Q 2359 409 2629 706 
Q 2900 1003 2900 1516 
L 2900 3500 
L 3475 3500 
L 3475 0 
L 2900 0 
L 2900 538 
Q 2691 219 2414 64 
Q 2138 -91 1772 -91 
Q 1169 -91 856 284 
Q 544 659 544 1381 
z
M 1991 3584 
L 1991 3584 
z
" transform="scale(0.015625)"/>
      <path id="DejaVuSans-72" d="M 2631 2963 
Q 2534 3019 2420 3045 
Q 2306 3072 2169 3072 
Q 1681 3072 1420 2755 
Q 1159 2438 1159 1844 
L 1159 0 
L 581 0 
L 581 3500 
L 1159 3500 
L 1159 2956 
Q 1341 3275 1631 3429 
Q 1922 3584 2338 3584 
Q 2397 3584 2469 3576 
Q 2541 3569 2628 3553 
L 2631 2963 
z
" transform="scale(0.015625)"/>
      <path id="DejaVuSans-6c" d="M 603 4863 
L 1178 4863 
L 1178 0 
L 603 0 
L 603 4863 
z
" transform="scale(0.015625)"/>
      <path id="DejaVuSans-2d" d="M 313 2009 
L 1997 2009 
L 1997 1497 
L 313 1497 
L 313 2009 
z
" transform="scale(0.015625)"/>
      <path id="DejaVuSans-73" d="M 2834 3397 
L 2834 2853 
Q 2591 2978 2328 3040 
Q 2066 3103 1784 3103 
Q 1356 3103 1142 2972 
Q 928 2841 928 2578 
Q 928 2378 1081 2264 
Q 1234 2150 1697 2047 
L 1894 2003 
Q 2506 1872 2764 1633 
Q 3022 1394 3022 966 
Q 3022 478 2636 193 
Q 2250 -91 1575 -91 
Q 1294 -91 989 -36 
Q 684 19 347 128 
L 347 722 
Q 666 556 975 473 
Q 1284 391 1588 391 
Q 1994 391 2212 530 
Q 2431 669 2431 922 
Q 2431 1156 2273 1281 
Q 2116 1406 1581 1522 
L 1381 1569 
Q 847 1681 609 1914 
Q 372 2147 372 2553 
Q 372 3047 722 3315 
Q 1072 3584 1716 3584 
Q 2034 3584 2315 3537 
Q 2597 3491 2834 3397 
z
" transform="scale(0.015625)"/>
      <path id="DejaVuSans-68" d="M 3513 2113 
L 3513 0 
L 2938 0 
L 2938 2094 
Q 2938 2591 2744 2837 
Q 2550 3084 2163 3084 
Q 1697 3084 1428 2787 
Q 1159 2491 1159 1978 
L 1159 0 
L 581 0 
L 581 4863 
L 1159 4863 
L 1159 2956 
Q 1366 3272 1645 3428 
Q 1925 3584 2291 3584 
Q 2894 3584 3203 3211 
Q 3513 2838 3513 2113 
z
" transform="scale(0.015625)"/>
      <path id="DejaVuSans-6f" d="M 1959 3097 
Q 1497 3097 1228 2736 
Q 959 2375 959 1747 
Q 959 1119 1226 758 
Q 1494 397 1959 397 
Q 2419 397 2687 759 
Q 2956 1122 2956 1747 
Q 2956 2369 2687 2733 
Q 2419 3097 1959 3097 
z
M 1959 3584 
Q 2709 3584 3137 3096 
Q 3566 2609 3566 1747 
Q 3566 888 3137 398 
Q 2709 -91 1959 -91 
Q 1206 -91 779 398 
Q 353 888 353 1747 
Q 353 2609 779 3096 
Q 1206 3584 1959 3584 
z
" transform="scale(0.015625)"/>
      <path id="DejaVuSans-74" d="M 1172 4494 
L 1172 3500 
L 2356 3500 
L 2356 3053 
L 1172 3053 
L 1172 1153 
Q 1172 725 1289 603 
Q 1406 481 1766 481 
L 2356 481 
L 2356 0 
L 1766 0 
Q 1100 0 847 248 
Q 594 497 594 1153 
L 594 3053 
L 172 3053 
L 172 3500 
L 594 3500 
L 594 4494 
L 1172 4494 
z
" transform="scale(0.015625)"/>
      <path id="DejaVuSans-65" d="M 3597 1894 
L 3597 1613 
L 953 1613 
Q 991 1019 1311 708 
Q 1631 397 2203 397 
Q 2534 397 2845 478 
Q 3156 559 3463 722 
L 3463 178 
Q 3153 47 2828 -22 
Q 2503 -91 2169 -91 
Q 1331 -91 842 396 
Q 353 884 353 1716 
Q 353 2575 817 3079 
Q 1281 3584 2069 3584 
Q 2775 3584 3186 3129 
Q 3597 2675 3597 1894 
z
M 3022 2063 
Q 3016 2534 2758 2815 
Q 2500 3097 2075 3097 
Q 1594 3097 1305 2825 
Q 1016 2553 972 2059 
L 3022 2063 
z
" transform="scale(0.015625)"/>
      <path id="DejaVuSans-6e" d="M 3513 2113 
L 3513 0 
L 2938 0 
L 2938 2094 
Q 2938 2591 2744 2837 
Q 2550 3084 2163 3084 
Q 1697 3084 1428 2787 
Q 1159 2491 1159 1978 
L 1159 0 
L 581 0 
L 581 3500 
L 1159 3500 
L 1159 2956 
Q 1366 3272 1645 3428 
Q 1925 3584 2291 3584 
Q 2894 3584 3203 3211 
Q 3513 2838 3513 2113 
z
" transform="scale(0.015625)"/>
     </defs>
     <use xlink:href="#DejaVuSans-75"/>
     <use xlink:href="#DejaVuSans-72" x="63.378906"/>
     <use xlink:href="#DejaVuSans-6c" x="104.492188"/>
     <use xlink:href="#DejaVuSans-2d" x="132.275391"/>
     <use xlink:href="#DejaVuSans-73" x="168.359375"/>
     <use xlink:href="#DejaVuSans-68" x="220.458984"/>
     <use xlink:href="#DejaVuSans-6f" x="283.837891"/>
     <use xlink:href="#DejaVuSans-72" x="345.019531"/>
     <use xlink:href="#DejaVuSans-74" x="386.132812"/>
     <use xlink:href="#DejaVuSans-65" x="425.341797"/>
     <use xlink:href="#DejaVuSans-6e" x="486.865234"/>
    </g>
   </g>
   <g id="patch_25">
    <path d="M -56.779688 913.840625 
L -16.779688 913.840625 
L -16.779688 899.840625 
L -56.779688 899.840625 
z
" style="fill: #aec7e8; stroke: #aec7e8; stroke-linejoin: miter"/>
   </g>
   <g id="text_4">
    <!-- unique-id -->
    <g transform="translate(-0.779688 913.840625) scale(0.2 -0.2)">
     <defs>
      <path id="DejaVuSans-69" d="M 603 3500 
L 1178 3500 
L 1178 0 
L 603 0 
L 603 3500 
z
M 603 4863 
L 1178 4863 
L 1178 4134 
L 603 4134 
L 603 4863 
z
" transform="scale(0.015625)"/>
      <path id="DejaVuSans-71" d="M 947 1747 
Q 947 1113 1208 752 
Q 1469 391 1925 391 
Q 2381 391 2643 752 
Q 2906 1113 2906 1747 
Q 2906 2381 2643 2742 
Q 2381 3103 1925 3103 
Q 1469 3103 1208 2742 
Q 947 2381 947 1747 
z
M 2906 525 
Q 2725 213 2448 61 
Q 2172 -91 1784 -91 
Q 1150 -91 751 415 
Q 353 922 353 1747 
Q 353 2572 751 3078 
Q 1150 3584 1784 3584 
Q 2172 3584 2448 3432 
Q 2725 3281 2906 2969 
L 2906 3500 
L 3481 3500 
L 3481 -1331 
L 2906 -1331 
L 2906 525 
z
" transform="scale(0.015625)"/>
      <path id="DejaVuSans-64" d="M 2906 2969 
L 2906 4863 
L 3481 4863 
L 3481 0 
L 2906 0 
L 2906 525 
Q 2725 213 2448 61 
Q 2172 -91 1784 -91 
Q 1150 -91 751 415 
Q 353 922 353 1747 
Q 353 2572 751 3078 
Q 1150 3584 1784 3584 
Q 2172 3584 2448 3432 
Q 2725 3281 2906 2969 
z
M 947 1747 
Q 947 1113 1208 752 
Q 1469 391 1925 391 
Q 2381 391 2643 752 
Q 2906 1113 2906 1747 
Q 2906 2381 2643 2742 
Q 2381 3103 1925 3103 
Q 1469 3103 1208 2742 
Q 947 2381 947 1747 
z
" transform="scale(0.015625)"/>
     </defs>
     <use xlink:href="#DejaVuSans-75"/>
     <use xlink:href="#DejaVuSans-6e" x="63.378906"/>
     <use xlink:href="#DejaVuSans-69" x="126.757812"/>
     <use xlink:href="#DejaVuSans-71" x="154.541016"/>
     <use xlink:href="#DejaVuSans-75" x="218.017578"/>
     <use xlink:href="#DejaVuSans-65" x="281.396484"/>
     <use xlink:href="#DejaVuSans-2d" x="342.919922"/>
     <use xlink:href="#DejaVuSans-69" x="379.003906"/>
     <use xlink:href="#DejaVuSans-64" x="406.787109"/>
    </g>
   </g>
   <g id="patch_26">
    <path d="M 149.264062 884.484375 
L 189.264062 884.484375 
L 189.264062 870.484375 
L 149.264062 870.484375 
z
" style="fill: #ff7f0e; stroke: #ff7f0e; stroke-linejoin: miter"/>
   </g>
   <g id="text_5">
    <!-- user-service -->
    <g transform="translate(205.264062 884.484375) scale(0.2 -0.2)">
     <defs>
      <path id="DejaVuSans-76" d="M 191 3500 
L 800 3500 
L 1894 563 
L 2988 3500 
L 3597 3500 
L 2284 0 
L 1503 0 
L 191 3500 
z
" transform="scale(0.015625)"/>
      <path id="DejaVuSans-63" d="M 3122 3366 
L 3122 2828 
Q 2878 2963 2633 3030 
Q 2388 3097 2138 3097 
Q 1578 3097 1268 2742 
Q 959 2388 959 1747 
Q 959 1106 1268 751 
Q 1578 397 2138 397 
Q 2388 397 2633 464 
Q 2878 531 3122 666 
L 3122 134 
Q 2881 22 2623 -34 
Q 2366 -91 2075 -91 
Q 1284 -91 818 406 
Q 353 903 353 1747 
Q 353 2603 823 3093 
Q 1294 3584 2113 3584 
Q 2378 3584 2631 3529 
Q 2884 3475 3122 3366 
z
" transform="scale(0.015625)"/>
     </defs>
     <use xlink:href="#DejaVuSans-75"/>
     <use xlink:href="#DejaVuSans-73" x="63.378906"/>
     <use xlink:href="#DejaVuSans-65" x="115.478516"/>
     <use xlink:href="#DejaVuSans-72" x="177.001953"/>
     <use xlink:href="#DejaVuSans-2d" x="211.740234"/>
     <use xlink:href="#DejaVuSans-73" x="247.824219"/>
     <use xlink:href="#DejaVuSans-65" x="299.923828"/>
     <use xlink:href="#DejaVuSans-72" x="361.447266"/>
     <use xlink:href="#DejaVuSans-76" x="402.560547"/>
     <use xlink:href="#DejaVuSans-69" x="461.740234"/>
     <use xlink:href="#DejaVuSans-63" x="489.523438"/>
     <use xlink:href="#DejaVuSans-65" x="544.503906"/>
    </g>
   </g>
   <g id="patch_27">
    <path d="M 149.264062 913.840625 
L 189.264062 913.840625 
L 189.264062 899.840625 
L 149.264062 899.840625 
z
" style="fill: #ffbb78; stroke: #ffbb78; stroke-linejoin: miter"/>
   </g>
   <g id="text_6">
    <!-- text-service -->
    <g transform="translate(205.264062 913.840625) scale(0.2 -0.2)">
     <defs>
      <path id="DejaVuSans-78" d="M 3513 3500 
L 2247 1797 
L 3578 0 
L 2900 0 
L 1881 1375 
L 863 0 
L 184 0 
L 1544 1831 
L 300 3500 
L 978 3500 
L 1906 2253 
L 2834 3500 
L 3513 3500 
z
" transform="scale(0.015625)"/>
     </defs>
     <use xlink:href="#DejaVuSans-74"/>
     <use xlink:href="#DejaVuSans-65" x="39.208984"/>
     <use xlink:href="#DejaVuSans-78" x="98.982422"/>
     <use xlink:href="#DejaVuSans-74" x="158.162109"/>
     <use xlink:href="#DejaVuSans-2d" x="197.371094"/>
     <use xlink:href="#DejaVuSans-73" x="233.455078"/>
     <use xlink:href="#DejaVuSans-65" x="285.554688"/>
     <use xlink:href="#DejaVuSans-72" x="347.078125"/>
     <use xlink:href="#DejaVuSans-76" x="388.191406"/>
     <use xlink:href="#DejaVuSans-69" x="447.371094"/>
     <use xlink:href="#DejaVuSans-63" x="475.154297"/>
     <use xlink:href="#DejaVuSans-65" x="530.134766"/>
    </g>
   </g>
   <g id="patch_28">
    <path d="M 366.470312 884.484375 
L 406.470312 884.484375 
L 406.470312 870.484375 
L 366.470312 870.484375 
z
" style="fill: #2ca02c; stroke: #2ca02c; stroke-linejoin: miter"/>
   </g>
   <g id="text_7">
    <!-- compose-post -->
    <g transform="translate(422.470312 884.484375) scale(0.2 -0.2)">
     <defs>
      <path id="DejaVuSans-6d" d="M 3328 2828 
Q 3544 3216 3844 3400 
Q 4144 3584 4550 3584 
Q 5097 3584 5394 3201 
Q 5691 2819 5691 2113 
L 5691 0 
L 5113 0 
L 5113 2094 
Q 5113 2597 4934 2840 
Q 4756 3084 4391 3084 
Q 3944 3084 3684 2787 
Q 3425 2491 3425 1978 
L 3425 0 
L 2847 0 
L 2847 2094 
Q 2847 2600 2669 2842 
Q 2491 3084 2119 3084 
Q 1678 3084 1418 2786 
Q 1159 2488 1159 1978 
L 1159 0 
L 581 0 
L 581 3500 
L 1159 3500 
L 1159 2956 
Q 1356 3278 1631 3431 
Q 1906 3584 2284 3584 
Q 2666 3584 2933 3390 
Q 3200 3197 3328 2828 
z
" transform="scale(0.015625)"/>
      <path id="DejaVuSans-70" d="M 1159 525 
L 1159 -1331 
L 581 -1331 
L 581 3500 
L 1159 3500 
L 1159 2969 
Q 1341 3281 1617 3432 
Q 1894 3584 2278 3584 
Q 2916 3584 3314 3078 
Q 3713 2572 3713 1747 
Q 3713 922 3314 415 
Q 2916 -91 2278 -91 
Q 1894 -91 1617 61 
Q 1341 213 1159 525 
z
M 3116 1747 
Q 3116 2381 2855 2742 
Q 2594 3103 2138 3103 
Q 1681 3103 1420 2742 
Q 1159 2381 1159 1747 
Q 1159 1113 1420 752 
Q 1681 391 2138 391 
Q 2594 391 2855 752 
Q 3116 1113 3116 1747 
z
" transform="scale(0.015625)"/>
     </defs>
     <use xlink:href="#DejaVuSans-63"/>
     <use xlink:href="#DejaVuSans-6f" x="54.980469"/>
     <use xlink:href="#DejaVuSans-6d" x="116.162109"/>
     <use xlink:href="#DejaVuSans-70" x="213.574219"/>
     <use xlink:href="#DejaVuSans-6f" x="277.050781"/>
     <use xlink:href="#DejaVuSans-73" x="338.232422"/>
     <use xlink:href="#DejaVuSans-65" x="390.332031"/>
     <use xlink:href="#DejaVuSans-2d" x="451.855469"/>
     <use xlink:href="#DejaVuSans-70" x="487.939453"/>
     <use xlink:href="#DejaVuSans-6f" x="551.416016"/>
     <use xlink:href="#DejaVuSans-73" x="612.597656"/>
     <use xlink:href="#DejaVuSans-74" x="664.697266"/>
    </g>
   </g>
   <g id="patch_29">
    <path d="M 366.470312 913.840625 
L 406.470312 913.840625 
L 406.470312 899.840625 
L 366.470312 899.840625 
z
" style="fill: #98df8a; stroke: #98df8a; stroke-linejoin: miter"/>
   </g>
   <g id="text_8">
    <!-- social-graph -->
    <g transform="translate(422.470312 913.840625) scale(0.2 -0.2)">
     <defs>
      <path id="DejaVuSans-61" d="M 2194 1759 
Q 1497 1759 1228 1600 
Q 959 1441 959 1056 
Q 959 750 1161 570 
Q 1363 391 1709 391 
Q 2188 391 2477 730 
Q 2766 1069 2766 1631 
L 2766 1759 
L 2194 1759 
z
M 3341 1997 
L 3341 0 
L 2766 0 
L 2766 531 
Q 2569 213 2275 61 
Q 1981 -91 1556 -91 
Q 1019 -91 701 211 
Q 384 513 384 1019 
Q 384 1609 779 1909 
Q 1175 2209 1959 2209 
L 2766 2209 
L 2766 2266 
Q 2766 2663 2505 2880 
Q 2244 3097 1772 3097 
Q 1472 3097 1187 3025 
Q 903 2953 641 2809 
L 641 3341 
Q 956 3463 1253 3523 
Q 1550 3584 1831 3584 
Q 2591 3584 2966 3190 
Q 3341 2797 3341 1997 
z
" transform="scale(0.015625)"/>
      <path id="DejaVuSans-67" d="M 2906 1791 
Q 2906 2416 2648 2759 
Q 2391 3103 1925 3103 
Q 1463 3103 1205 2759 
Q 947 2416 947 1791 
Q 947 1169 1205 825 
Q 1463 481 1925 481 
Q 2391 481 2648 825 
Q 2906 1169 2906 1791 
z
M 3481 434 
Q 3481 -459 3084 -895 
Q 2688 -1331 1869 -1331 
Q 1566 -1331 1297 -1286 
Q 1028 -1241 775 -1147 
L 775 -588 
Q 1028 -725 1275 -790 
Q 1522 -856 1778 -856 
Q 2344 -856 2625 -561 
Q 2906 -266 2906 331 
L 2906 616 
Q 2728 306 2450 153 
Q 2172 0 1784 0 
Q 1141 0 747 490 
Q 353 981 353 1791 
Q 353 2603 747 3093 
Q 1141 3584 1784 3584 
Q 2172 3584 2450 3431 
Q 2728 3278 2906 2969 
L 2906 3500 
L 3481 3500 
L 3481 434 
z
" transform="scale(0.015625)"/>
     </defs>
     <use xlink:href="#DejaVuSans-73"/>
     <use xlink:href="#DejaVuSans-6f" x="52.099609"/>
     <use xlink:href="#DejaVuSans-63" x="113.28125"/>
     <use xlink:href="#DejaVuSans-69" x="168.261719"/>
     <use xlink:href="#DejaVuSans-61" x="196.044922"/>
     <use xlink:href="#DejaVuSans-6c" x="257.324219"/>
     <use xlink:href="#DejaVuSans-2d" x="285.107422"/>
     <use xlink:href="#DejaVuSans-67" x="321.191406"/>
     <use xlink:href="#DejaVuSans-72" x="384.667969"/>
     <use xlink:href="#DejaVuSans-61" x="425.78125"/>
     <use xlink:href="#DejaVuSans-70" x="487.060547"/>
     <use xlink:href="#DejaVuSans-68" x="550.537109"/>
    </g>
   </g>
   <g id="patch_30">
    <path d="M 603.254687 884.484375 
L 643.254687 884.484375 
L 643.254687 870.484375 
L 603.254687 870.484375 
z
" style="fill: #d62728; stroke: #d62728; stroke-linejoin: miter"/>
   </g>
   <g id="text_9">
    <!-- user-mention -->
    <g transform="translate(659.254687 884.484375) scale(0.2 -0.2)">
     <use xlink:href="#DejaVuSans-75"/>
     <use xlink:href="#DejaVuSans-73" x="63.378906"/>
     <use xlink:href="#DejaVuSans-65" x="115.478516"/>
     <use xlink:href="#DejaVuSans-72" x="177.001953"/>
     <use xlink:href="#DejaVuSans-2d" x="211.740234"/>
     <use xlink:href="#DejaVuSans-6d" x="247.824219"/>
     <use xlink:href="#DejaVuSans-65" x="345.236328"/>
     <use xlink:href="#DejaVuSans-6e" x="406.759766"/>
     <use xlink:href="#DejaVuSans-74" x="470.138672"/>
     <use xlink:href="#DejaVuSans-69" x="509.347656"/>
     <use xlink:href="#DejaVuSans-6f" x="537.130859"/>
     <use xlink:href="#DejaVuSans-6e" x="598.3125"/>
    </g>
   </g>
   <g id="patch_31">
    <path d="M 603.254687 913.840625 
L 643.254687 913.840625 
L 643.254687 899.840625 
L 603.254687 899.840625 
z
" style="fill: #ff9896; stroke: #ff9896; stroke-linejoin: miter"/>
   </g>
   <g id="text_10">
    <!-- post-storage -->
    <g transform="translate(659.254687 913.840625) scale(0.2 -0.2)">
     <use xlink:href="#DejaVuSans-70"/>
     <use xlink:href="#DejaVuSans-6f" x="63.476562"/>
     <use xlink:href="#DejaVuSans-73" x="124.658203"/>
     <use xlink:href="#DejaVuSans-74" x="176.757812"/>
     <use xlink:href="#DejaVuSans-2d" x="215.966797"/>
     <use xlink:href="#DejaVuSans-73" x="252.050781"/>
     <use xlink:href="#DejaVuSans-74" x="304.150391"/>
     <use xlink:href="#DejaVuSans-6f" x="343.359375"/>
     <use xlink:href="#DejaVuSans-72" x="404.541016"/>
     <use xlink:href="#DejaVuSans-61" x="445.654297"/>
     <use xlink:href="#DejaVuSans-67" x="506.933594"/>
     <use xlink:href="#DejaVuSans-65" x="570.410156"/>
    </g>
   </g>
   <g id="patch_32">
    <path d="M 831.589062 884.484375 
L 871.589062 884.484375 
L 871.589062 870.484375 
L 831.589062 870.484375 
z
" style="fill: #9467bd; stroke: #9467bd; stroke-linejoin: miter"/>
   </g>
   <g id="text_11">
    <!-- media-service -->
    <g transform="translate(887.589062 884.484375) scale(0.2 -0.2)">
     <use xlink:href="#DejaVuSans-6d"/>
     <use xlink:href="#DejaVuSans-65" x="97.412109"/>
     <use xlink:href="#DejaVuSans-64" x="158.935547"/>
     <use xlink:href="#DejaVuSans-69" x="222.412109"/>
     <use xlink:href="#DejaVuSans-61" x="250.195312"/>
     <use xlink:href="#DejaVuSans-2d" x="311.474609"/>
     <use xlink:href="#DejaVuSans-73" x="347.558594"/>
     <use xlink:href="#DejaVuSans-65" x="399.658203"/>
     <use xlink:href="#DejaVuSans-72" x="461.181641"/>
     <use xlink:href="#DejaVuSans-76" x="502.294922"/>
     <use xlink:href="#DejaVuSans-69" x="561.474609"/>
     <use xlink:href="#DejaVuSans-63" x="589.257812"/>
     <use xlink:href="#DejaVuSans-65" x="644.238281"/>
    </g>
   </g>
   <g id="patch_33">
    <path d="M 1068.745313 884.484375 
L 1108.745313 884.484375 
L 1108.745313 870.484375 
L 1068.745313 870.484375 
z
" style="fill: #c5b0d5; stroke: #c5b0d5; stroke-linejoin: miter"/>
   </g>
   <g id="text_12">
    <!-- home-timeline -->
    <g transform="translate(1124.745313 884.484375) scale(0.2 -0.2)">
     <use xlink:href="#DejaVuSans-68"/>
     <use xlink:href="#DejaVuSans-6f" x="63.378906"/>
     <use xlink:href="#DejaVuSans-6d" x="124.560547"/>
     <use xlink:href="#DejaVuSans-65" x="221.972656"/>
     <use xlink:href="#DejaVuSans-2d" x="283.496094"/>
     <use xlink:href="#DejaVuSans-74" x="319.580078"/>
     <use xlink:href="#DejaVuSans-69" x="358.789062"/>
     <use xlink:href="#DejaVuSans-6d" x="386.572266"/>
     <use xlink:href="#DejaVuSans-65" x="483.984375"/>
     <use xlink:href="#DejaVuSans-6c" x="545.507812"/>
     <use xlink:href="#DejaVuSans-69" x="573.291016"/>
     <use xlink:href="#DejaVuSans-6e" x="601.074219"/>
     <use xlink:href="#DejaVuSans-65" x="664.453125"/>
    </g>
   </g>
   <g id="patch_34">
    <path d="M 1309.939063 884.484375 
L 1349.939063 884.484375 
L 1349.939063 870.484375 
L 1309.939063 870.484375 
z
" style="fill: #8c564b; stroke: #8c564b; stroke-linejoin: miter"/>
   </g>
   <g id="text_13">
    <!-- user-timeline -->
    <g transform="translate(1365.939063 884.484375) scale(0.2 -0.2)">
     <use xlink:href="#DejaVuSans-75"/>
     <use xlink:href="#DejaVuSans-73" x="63.378906"/>
     <use xlink:href="#DejaVuSans-65" x="115.478516"/>
     <use xlink:href="#DejaVuSans-72" x="177.001953"/>
     <use xlink:href="#DejaVuSans-2d" x="211.740234"/>
     <use xlink:href="#DejaVuSans-74" x="247.824219"/>
     <use xlink:href="#DejaVuSans-69" x="287.033203"/>
     <use xlink:href="#DejaVuSans-6d" x="314.816406"/>
     <use xlink:href="#DejaVuSans-65" x="412.228516"/>
     <use xlink:href="#DejaVuSans-6c" x="473.751953"/>
     <use xlink:href="#DejaVuSans-69" x="501.535156"/>
     <use xlink:href="#DejaVuSans-6e" x="529.318359"/>
     <use xlink:href="#DejaVuSans-65" x="592.697266"/>
    </g>
   </g>
  </g>
 </g>
 <defs>
  <clipPath id="p5e29d8f7d8">
   <rect x="10.8" y="72.72" width="703.8" height="676.08"/>
  </clipPath>
  <clipPath id="p32b65fc714">
   <rect x="725.4" y="72.72" width="703.8" height="676.08"/>
  </clipPath>
 </defs>
</svg>
